# Blender v2.79 (sub 0) OBJ File: 'untitled.blend'
# www.blender.org
mtllib bullet.mtl
o Cone
v 0.092639 -0.997515 0.998189
v 0.285014 -0.959819 0.998757
v 0.466338 -0.885316 0.999372
v 0.629643 -0.776870 1.000012
v 0.768653 -0.638649 1.000650
v 0.878026 -0.475963 1.001263
v 0.953560 -0.295066 1.001828
v 0.992351 -0.102909 1.002322
v 0.992908 0.093125 1.002727
v 0.955210 0.285500 1.003027
v 0.880707 0.466824 1.003210
v 0.772260 0.630130 1.003270
v 0.634038 0.769141 1.003204
v 0.471352 0.878516 1.003014
v 0.290455 0.954050 1.002708
v 0.098297 0.992842 1.002299
v -0.097736 0.993400 1.001800
v -0.290111 0.955704 1.001232
v -0.471435 0.881201 1.000617
v -0.634740 0.772755 0.999978
v -0.773750 0.634533 0.999339
v -0.883123 0.471848 0.998726
v -0.958657 0.290950 0.998161
v 0.002548 0.002057 -0.999995
v -0.997447 0.098793 0.997667
v -0.998004 -0.097240 0.997262
v -0.960307 -0.289616 0.996962
v -0.885803 -0.470940 0.996779
v -0.777356 -0.634246 0.996720
v -0.639134 -0.773257 0.996786
v -0.476448 -0.882631 0.996975
v -0.295550 -0.958166 0.997281
v -0.103392 -0.996957 0.997691
vt 0.500000 0.000000
vt 0.500000 1.000000
vt 0.597545 0.000000
vt 0.691342 0.000000
vt 0.777785 0.000000
vt 0.853553 0.000000
vt 0.777785 0.000000
vt 0.691342 0.000000
vt 0.597545 0.000000
vt 0.500000 0.000000
vt 0.402455 0.000000
vt 0.308658 0.000000
vt 0.222215 0.000000
vt 0.146447 0.000000
vt 0.853553 0.000000
vt 0.777785 0.000000
vt 0.691342 0.000000
vt 0.597545 0.000000
vt 0.500000 0.000000
vt 0.402455 0.000000
vt 0.308658 0.000000
vt 0.222215 0.000000
vt 0.146446 0.000000
vt 0.222215 0.000000
vt 0.308659 0.000000
vt 0.402455 0.000000
vt 0.500000 0.000000
vt 0.597546 0.000000
vt 0.691342 0.000000
vt 0.777786 0.000000
vt 0.853554 0.000000
vt 0.146447 0.000000
vt 0.222215 0.000000
vt 0.308659 0.000000
vt 0.402456 0.000000
vt 0.597545 -0.009607
vt 0.691342 -0.038060
vt 0.777785 -0.084265
vt 0.853553 -0.146447
vt 0.915735 -0.222215
vt 0.961940 -0.308658
vt 0.990393 -0.402455
vt 1.000000 -0.500000
vt 0.990393 -0.597545
vt 0.961940 -0.691342
vt 0.915735 -0.777785
vt 0.853553 -0.853553
vt 0.777785 -0.915735
vt 0.691342 -0.961940
vt 0.597545 -0.990393
vt 0.500000 -1.000000
vt 0.402455 -0.990393
vt 0.308658 -0.961940
vt 0.222215 -0.915735
vt 0.146446 -0.853553
vt 0.084265 -0.777785
vt 0.038060 -0.691341
vt 0.009607 -0.597545
vt 0.000000 -0.500000
vt 0.009607 -0.402454
vt 0.038060 -0.308658
vt 0.084266 -0.222214
vt 0.146447 -0.146446
vt 0.222215 -0.084265
vt 0.308659 -0.038060
vt 0.402456 -0.009607
vn 0.1733 -0.8777 -0.4469
vn 0.3414 -0.8272 -0.4463
vn 0.4964 -0.7449 -0.4458
vn 0.6324 -0.6339 -0.4452
vn 0.7441 -0.4986 -0.4446
vn 0.8273 -0.3440 -0.4441
vn 0.8787 -0.1762 -0.4436
vn 0.8964 -0.0016 -0.4432
vn 0.8797 0.1731 -0.4429
vn 0.8292 0.3412 -0.4427
vn 0.7469 0.4962 -0.4426
vn 0.6360 0.6322 -0.4426
vn 0.5006 0.7439 -0.4427
vn 0.3461 0.8271 -0.4429
vn 0.1783 0.8785 -0.4432
vn 0.0037 0.8962 -0.4436
vn -0.1710 0.8795 -0.4441
vn -0.3391 0.8290 -0.4446
vn -0.4941 0.7467 -0.4452
vn -0.6301 0.6358 -0.4458
vn -0.7419 0.5004 -0.4464
vn -0.8250 0.3459 -0.4469
vn -0.8764 0.1781 -0.4474
vn -0.8941 0.0035 -0.4478
vn -0.8774 -0.1712 -0.4481
vn -0.8270 -0.3393 -0.4483
vn -0.7447 -0.4944 -0.4484
vn -0.6337 -0.6303 -0.4484
vn -0.4984 -0.7421 -0.4483
vn -0.3438 -0.8252 -0.4481
vn -0.1760 -0.8767 -0.4477
vn -0.0014 -0.8944 -0.4473
vn -0.0025 -0.0021 1.0000
g Cone_Cone_Material.001
usemtl Material.001
s off
f 1/1/1 24/2/1 2/3/1
f 2/3/2 24/2/2 3/4/2
f 3/4/3 24/2/3 4/5/3
f 4/5/4 24/2/4 5/6/4
f 5/6/5 24/2/5 6/7/5
f 6/7/6 24/2/6 7/8/6
f 7/8/7 24/2/7 8/9/7
f 8/9/8 24/2/8 9/10/8
f 9/10/9 24/2/9 10/11/9
f 10/11/10 24/2/10 11/12/10
f 11/12/11 24/2/11 12/13/11
f 12/13/12 24/2/12 13/14/12
f 13/15/13 24/2/13 14/16/13
f 14/16/14 24/2/14 15/17/14
f 15/17/15 24/2/15 16/18/15
f 16/18/16 24/2/16 17/19/16
f 17/19/17 24/2/17 18/20/17
f 18/20/18 24/2/18 19/21/18
f 19/21/19 24/2/19 20/22/19
f 20/22/20 24/2/20 21/23/20
f 21/23/21 24/2/21 22/24/21
f 22/24/22 24/2/22 23/25/22
f 23/25/23 24/2/23 25/26/23
f 25/26/24 24/2/24 26/27/24
f 26/27/25 24/2/25 27/28/25
f 27/28/26 24/2/26 28/29/26
f 28/29/27 24/2/27 29/30/27
f 29/30/28 24/2/28 30/31/28
f 30/32/29 24/2/29 31/33/29
f 31/33/30 24/2/30 32/34/30
f 32/34/31 24/2/31 33/35/31
f 33/35/32 24/2/32 1/1/32
f 1/1/33 2/36/33 3/37/33 4/38/33 5/39/33 6/40/33 7/41/33 8/42/33 9/43/33 10/44/33 11/45/33 12/46/33 13/47/33 14/48/33 15/49/33 16/50/33 17/51/33 18/52/33 19/53/33 20/54/33 21/55/33 22/56/33 23/57/33 25/58/33 26/59/33 27/60/33 28/61/33 29/62/33 30/63/33 31/64/33 32/65/33 33/66/33
