# Blender v2.79 (sub 0) OBJ File: 'player.blend'
# www.blender.org
mtllib player.mtl
o Cylinder
v 0.300000 -0.000000 -0.353321
v 0.300000 -0.000000 0.353321
v 0.294236 -0.058527 -0.353321
v 0.294236 -0.058527 0.353321
v 0.277164 -0.114805 -0.353321
v 0.277164 -0.114805 0.353321
v 0.249441 -0.166671 -0.353321
v 0.249441 -0.166671 0.353321
v 0.212132 -0.212132 -0.353321
v 0.212132 -0.212132 0.353321
v 0.166671 -0.249441 -0.353321
v 0.166671 -0.249441 0.353321
v 0.114805 -0.277164 -0.353321
v 0.114805 -0.277164 0.353321
v 0.058527 -0.294236 -0.353321
v 0.058527 -0.294236 0.353321
v 0.000000 -0.300000 -0.353321
v 0.000000 -0.300000 0.353321
v -0.058527 -0.294236 -0.353321
v -0.058527 -0.294236 0.353321
v -0.114805 -0.277164 -0.353321
v -0.114805 -0.277164 0.353321
v -0.166671 -0.249441 -0.353321
v -0.166671 -0.249441 0.353321
v -0.212132 -0.212132 -0.353321
v -0.212132 -0.212132 0.353321
v -0.249441 -0.166671 -0.353321
v -0.249441 -0.166671 0.353321
v -0.277164 -0.114805 -0.353321
v -0.277164 -0.114805 0.353321
v -0.294236 -0.058527 -0.353321
v -0.294236 -0.058527 0.353321
v -0.300000 0.000000 -0.353321
v -0.300000 0.000000 0.353321
v -0.294235 0.058527 -0.353321
v -0.294236 0.058527 0.353321
v -0.277164 0.114805 -0.353321
v -0.277164 0.114805 0.353321
v -0.249441 0.166671 -0.353321
v -0.249441 0.166671 0.353321
v -0.212132 0.212132 -0.353321
v -0.212132 0.212132 0.353321
v -0.166671 0.249441 -0.353321
v -0.166671 0.249441 0.353321
v -0.114805 0.277164 -0.353321
v -0.114805 0.277164 0.353321
v -0.058527 0.294236 -0.353321
v -0.058527 0.294236 0.353321
v 0.000000 0.300000 -0.353321
v 0.000000 0.300000 0.353321
v 0.058528 0.294236 -0.353321
v 0.058527 0.294236 0.353321
v 0.114805 0.277164 -0.353321
v 0.114805 0.277164 0.353321
v 0.166671 0.249441 -0.353321
v 0.166671 0.249441 0.353321
v 0.212132 0.212132 -0.353321
v 0.212132 0.212132 0.353321
v 0.249441 0.166671 -0.353321
v 0.249441 0.166671 0.353321
v 0.277164 0.114805 -0.353321
v 0.277164 0.114805 0.353321
v 0.294236 0.058527 -0.353321
v 0.294236 0.058527 0.353321
vt 0.003681 0.604902
vt 0.427815 0.073023
vt 0.419526 0.119436
vt 0.018098 0.558898
vt 0.447537 0.037482
vt 0.042042 0.520802
vt 0.477052 0.013493
vt 0.073987 0.491705
vt 0.514507 0.001130
vt 0.112232 0.472191
vt 0.558001 0.000000
vt 0.155030 0.462412
vt 0.605686 0.009384
vt 0.200670 0.462166
vt 0.655836 0.028353
vt 0.247541 0.470988
vt 0.706869 0.055852
vt 0.294152 0.488217
vt 0.757349 0.090765
vt 0.339142 0.513053
vt 0.805968 0.131941
vt 0.381272 0.544593
vt 0.851518 0.178209
vt 0.419413 0.581854
vt 0.892868 0.228365
vt 0.452533 0.623774
vt 0.928934 0.281160
vt 0.479681 0.669215
vt 0.958671 0.335267
vt 0.499992 0.716947
vt 0.981063 0.389262
vt 0.512687 0.765635
vt 0.995138 0.441589
vt 0.517102 0.813829
vt 1.000000 0.490553
vt 0.512720 0.859959
vt 0.994888 0.534322
vt 0.499228 0.902348
vt 0.979262 0.570962
vt 0.476585 0.939247
vt 0.952912 0.598513
vt 0.445096 0.968897
vt 0.916082 0.615110
vt 0.405495 0.989630
vt 0.869597 0.619161
vt 0.358995 1.000000
vt 0.814960 0.609551
vt 0.307320 0.998936
vt 0.754382 0.585872
vt 0.252667 0.985903
vt 0.690720 0.548601
vt 0.197611 0.961038
vt 0.627294 0.499204
vt 0.144928 0.925226
vt 0.567610 0.440105
vt 0.097377 0.880097
vt 0.515004 0.374497
vt 0.057446 0.827924
vt 0.472306 0.306042
vt 0.027134 0.771431
vt 0.441565 0.238491
vt 0.000000 0.657175
vt 0.423905 0.175318
vt 0.007782 0.713554
vn 0.9952 -0.0980 0.0000
vn 0.9569 -0.2903 0.0000
vn 0.8819 -0.4714 0.0000
vn 0.7730 -0.6344 0.0000
vn 0.6344 -0.7730 0.0000
vn 0.4714 -0.8819 0.0000
vn 0.2903 -0.9569 0.0000
vn 0.0980 -0.9952 0.0000
vn -0.0980 -0.9952 0.0000
vn -0.2903 -0.9569 0.0000
vn -0.4714 -0.8819 0.0000
vn -0.6344 -0.7730 0.0000
vn -0.7730 -0.6344 0.0000
vn -0.8819 -0.4714 -0.0000
vn -0.9569 -0.2903 -0.0000
vn -0.9952 -0.0980 -0.0000
vn -0.9952 0.0980 -0.0000
vn -0.9569 0.2903 -0.0000
vn -0.8819 0.4714 -0.0000
vn -0.7730 0.6344 -0.0000
vn -0.6344 0.7730 -0.0000
vn -0.4714 0.8819 -0.0000
vn -0.2903 0.9569 -0.0000
vn -0.0980 0.9952 -0.0000
vn 0.0980 0.9952 0.0000
vn 0.2903 0.9569 0.0000
vn 0.4714 0.8819 0.0000
vn 0.6344 0.7730 -0.0000
vn 0.7730 0.6344 0.0000
vn 0.8819 0.4714 0.0000
vn 0.0000 0.0000 1.0000
vn 0.9569 0.2903 0.0000
vn 0.9952 0.0980 0.0000
vn -0.0000 0.0000 -1.0000
usemtl Material.001
s off
f 2/1/1 3/2/1 1/3/1
f 4/4/2 5/5/2 3/2/2
f 6/6/3 7/7/3 5/5/3
f 8/8/4 9/9/4 7/7/4
f 10/10/5 11/11/5 9/9/5
f 12/12/6 13/13/6 11/11/6
f 14/14/7 15/15/7 13/13/7
f 16/16/8 17/17/8 15/15/8
f 18/18/9 19/19/9 17/17/9
f 20/20/10 21/21/10 19/19/10
f 22/22/11 23/23/11 21/21/11
f 24/24/12 25/25/12 23/23/12
f 26/26/13 27/27/13 25/25/13
f 28/28/14 29/29/14 27/27/14
f 30/30/15 31/31/15 29/29/15
f 32/32/16 33/33/16 31/31/16
f 34/34/17 35/35/17 33/33/17
f 36/36/18 37/37/18 35/35/18
f 38/38/19 39/39/19 37/37/19
f 40/40/20 41/41/20 39/39/20
f 42/42/21 43/43/21 41/41/21
f 44/44/22 45/45/22 43/43/22
f 46/46/23 47/47/23 45/45/23
f 48/48/24 49/49/24 47/47/24
f 50/50/25 51/51/25 49/49/25
f 52/52/26 53/53/26 51/51/26
f 54/54/27 55/55/27 53/53/27
f 56/56/28 57/57/28 55/55/28
f 58/58/29 59/59/29 57/57/29
f 60/60/30 61/61/30 59/59/30
f 38/38/31 22/22/31 6/6/31
f 61/61/32 64/62/32 63/63/32
f 64/62/33 1/3/33 63/63/33
f 15/15/34 31/31/34 47/47/34
f 2/1/1 4/4/1 3/2/1
f 4/4/2 6/6/2 5/5/2
f 6/6/3 8/8/3 7/7/3
f 8/8/4 10/10/4 9/9/4
f 10/10/5 12/12/5 11/11/5
f 12/12/6 14/14/6 13/13/6
f 14/14/7 16/16/7 15/15/7
f 16/16/8 18/18/8 17/17/8
f 18/18/9 20/20/9 19/19/9
f 20/20/10 22/22/10 21/21/10
f 22/22/11 24/24/11 23/23/11
f 24/24/12 26/26/12 25/25/12
f 26/26/13 28/28/13 27/27/13
f 28/28/14 30/30/14 29/29/14
f 30/30/15 32/32/15 31/31/15
f 32/32/16 34/34/16 33/33/16
f 34/34/17 36/36/17 35/35/17
f 36/36/18 38/38/18 37/37/18
f 38/38/19 40/40/19 39/39/19
f 40/40/20 42/42/20 41/41/20
f 42/42/21 44/44/21 43/43/21
f 44/44/22 46/46/22 45/45/22
f 46/46/23 48/48/23 47/47/23
f 48/48/24 50/50/24 49/49/24
f 50/50/25 52/52/25 51/51/25
f 52/52/26 54/54/26 53/53/26
f 54/54/27 56/56/27 55/55/27
f 56/56/28 58/58/28 57/57/28
f 58/58/29 60/60/29 59/59/29
f 60/60/30 62/64/30 61/61/30
f 6/6/31 4/4/31 2/1/31
f 2/1/31 64/62/31 6/6/31
f 64/62/31 62/64/31 6/6/31
f 62/64/31 60/60/31 58/58/31
f 58/58/31 56/56/31 54/54/31
f 54/54/31 52/52/31 50/50/31
f 50/50/31 48/48/31 46/46/31
f 46/46/31 44/44/31 42/42/31
f 42/42/31 40/40/31 38/38/31
f 38/38/31 36/36/31 30/30/31
f 36/36/31 34/34/31 30/30/31
f 34/34/31 32/32/31 30/30/31
f 30/30/31 28/28/31 26/26/31
f 26/26/31 24/24/31 30/30/31
f 24/24/31 22/22/31 30/30/31
f 22/22/31 20/20/31 18/18/31
f 18/18/31 16/16/31 22/22/31
f 16/16/31 14/14/31 22/22/31
f 14/14/31 12/12/31 10/10/31
f 10/10/31 8/8/31 6/6/31
f 62/64/31 58/58/31 54/54/31
f 54/54/31 50/50/31 38/38/31
f 50/50/31 46/46/31 38/38/31
f 46/46/31 42/42/31 38/38/31
f 14/14/31 10/10/31 22/22/31
f 10/10/31 6/6/31 22/22/31
f 6/6/31 62/64/31 38/38/31
f 62/64/31 54/54/31 38/38/31
f 38/38/31 30/30/31 22/22/31
f 61/61/32 62/64/32 64/62/32
f 64/62/33 2/1/33 1/3/33
f 63/63/34 1/3/34 3/2/34
f 3/2/34 5/5/34 7/7/34
f 7/7/34 9/9/34 11/11/34
f 11/11/34 13/13/34 7/7/34
f 13/13/34 15/15/34 7/7/34
f 15/15/34 17/17/34 23/23/34
f 17/17/34 19/19/34 23/23/34
f 19/19/34 21/21/34 23/23/34
f 23/23/34 25/25/34 27/27/34
f 27/27/34 29/29/34 23/23/34
f 29/29/34 31/31/34 23/23/34
f 31/31/34 33/33/34 35/35/34
f 35/35/34 37/37/34 39/39/34
f 39/39/34 41/41/34 43/43/34
f 43/43/34 45/45/34 47/47/34
f 47/47/34 49/49/34 55/55/34
f 49/49/34 51/51/34 55/55/34
f 51/51/34 53/53/34 55/55/34
f 55/55/34 57/57/34 63/63/34
f 57/57/34 59/59/34 63/63/34
f 59/59/34 61/61/34 63/63/34
f 63/63/34 3/2/34 15/15/34
f 3/2/34 7/7/34 15/15/34
f 31/31/34 35/35/34 47/47/34
f 35/35/34 39/39/34 47/47/34
f 39/39/34 43/43/34 47/47/34
f 15/15/34 23/23/34 31/31/34
f 47/47/34 55/55/34 63/63/34
f 63/63/34 15/15/34 47/47/34
